<?xml version="1.0" standalone="no"?>
<!DOCTYPE svg PUBLIC "-//W3C//DTD SVG 20010904//EN"
 "http://www.w3.org/TR/2001/REC-SVG-20010904/DTD/svg10.dtd">
<svg version="1.0" xmlns="http://www.w3.org/2000/svg"
 width="1320.000000pt" height="1379.000000pt" viewBox="0 0 1320.000000 1379.000000"
 preserveAspectRatio="xMidYMid meet">
<metadata>
Created by potrace 1.15, written by Peter Selinger 2001-2017
</metadata>
<g transform="translate(0.000000,1379.000000) scale(0.100000,-0.100000)"
fill="#000000" stroke="none">
<path d="M4042 12740 c-33 -27 -46 -80 -31 -132 14 -52 67 -106 234 -236 105
-81 205 -178 314 -304 18 -21 36 -36 41 -35 16 4 133 -116 171 -176 102 -157
88 -269 -35 -269 -64 0 -117 29 -216 118 -100 90 -271 214 -352 255 -101 51
-199 86 -364 128 -199 51 -273 54 -309 15 -19 -20 -25 -38 -25 -71 0 -113 71
-148 208 -102 59 20 64 20 133 4 126 -28 252 -106 378 -233 156 -158 248 -295
303 -450 17 -48 54 -135 84 -194 l54 -107 -35 -21 c-41 -25 -78 -81 -73 -111
5 -37 30 -44 84 -27 62 20 79 14 92 -30 47 -157 24 -280 -62 -346 -20 -15
-100 -58 -179 -95 -161 -77 -196 -103 -228 -167 -18 -37 -21 -57 -16 -106 13
-147 126 -277 363 -418 77 -46 243 -151 369 -235 508 -336 1040 -608 1595
-815 336 -126 1004 -340 1274 -410 342 -88 723 -140 1036 -143 143 -1 242 18
331 63 47 25 63 48 83 124 9 34 26 70 42 87 36 38 141 75 282 98 65 11 140 29
166 40 58 25 163 123 171 159 15 67 147 174 315 255 101 48 148 77 184 113 61
61 111 164 132 270 68 357 144 531 313 717 34 37 59 72 56 76 -6 11 52 69 77
77 10 3 18 9 18 13 0 4 31 22 70 41 38 18 68 36 66 38 -3 2 -51 -10 -107 -28
-127 -39 -314 -132 -403 -199 l-67 -51 27 48 c15 26 37 61 49 77 13 17 44 72
69 124 l47 93 102 48 c56 27 140 60 187 75 189 61 325 149 392 254 15 25 28
41 28 35 0 -5 -6 -18 -13 -29 -38 -55 -51 -79 -40 -72 7 4 31 34 54 67 23 33
46 57 50 54 5 -3 9 1 9 9 0 25 24 61 75 112 28 28 59 51 70 51 60 4 57 1 40
34 -23 44 -66 67 -117 63 -64 -4 -117 -19 -139 -39 -24 -22 -74 -125 -84 -174
-20 -95 -101 -191 -198 -235 -29 -14 -99 -34 -157 -45 -58 -12 -115 -24 -128
-27 l-23 -6 17 39 c39 91 156 409 190 519 59 192 65 224 68 342 2 87 6 117 19
130 20 22 80 53 179 94 43 17 89 40 103 51 63 49 -5 148 -102 148 -50 0 -145
-63 -259 -173 -129 -123 -217 -233 -239 -298 -68 -195 -333 -340 -750 -410
-173 -29 -319 -69 -506 -139 -350 -132 -595 -168 -743 -111 l-28 11 37 41
c114 127 134 236 54 304 -79 65 -187 -6 -351 -230 -99 -136 -119 -156 -207
-213 -141 -93 -303 -146 -479 -158 -85 -6 -90 -6 -111 17 -24 26 -24 43 4 120
15 41 15 50 2 81 -12 29 -22 37 -61 47 -62 15 -99 5 -206 -59 -137 -81 -193
-94 -400 -94 -244 0 -428 29 -644 103 -132 45 -181 93 -204 197 -8 37 -6 46
19 84 45 67 37 142 -21 187 -21 17 -89 16 -124 -2 -16 -9 -33 -12 -37 -8 -4 4
-17 85 -29 178 -22 168 -28 194 -58 228 -19 22 -76 22 -149 1 -66 -19 -140
-15 -178 10 -40 27 -74 113 -101 256 -13 70 -34 152 -47 182 -62 140 -173 197
-298 153 -55 -20 -94 -56 -125 -117 -15 -30 -31 -48 -42 -48 -16 0 -140 98
-227 179 -22 20 -110 97 -195 171 -228 196 -276 245 -345 350 -88 134 -121
160 -197 160 -27 -1 -51 -8 -66 -20z m978 -922 c7 -24 20 -48 28 -55 8 -6 11
-17 7 -22 -3 -6 1 -14 9 -17 9 -3 16 -17 16 -30 0 -13 9 -29 20 -36 11 -7 20
-21 20 -31 0 -33 32 -81 110 -162 42 -44 89 -101 103 -126 38 -65 80 -169 82
-204 1 -16 6 -43 10 -59 6 -21 5 -27 -4 -22 -7 5 -11 -1 -11 -14 0 -16 -5 -20
-15 -16 -8 3 -15 1 -15 -4 0 -6 -6 -10 -12 -10 -17 1 -58 35 -58 49 0 6 -7 8
-16 4 -9 -3 -21 3 -31 16 -11 16 -18 19 -28 11 -15 -13 -48 -2 -38 13 4 6 -2
8 -15 5 -14 -4 -22 -2 -22 6 0 7 -11 18 -25 24 -29 13 -30 14 -103 77 -29 25
-57 43 -63 40 -5 -4 -9 -1 -9 5 0 5 -28 36 -62 68 -34 31 -70 65 -80 75 -18
17 -20 17 -45 -13 -35 -43 -39 -31 -9 26 14 27 26 54 26 61 0 20 50 72 95 99
24 13 66 27 94 31 46 5 50 7 37 22 -23 26 -28 59 -15 95 9 26 10 49 3 90 -12
64 -3 66 16 4z m6036 -566 c-18 -86 -34 -143 -35 -125 -1 6 6 42 14 78 26 109
11 97 -23 -19 -30 -103 -35 -111 -97 -177 -36 -38 -65 -76 -65 -84 0 -8 -35
-49 -77 -92 -42 -43 -76 -82 -75 -88 0 -5 -18 -25 -41 -42 -152 -118 -432
-331 -454 -345 -14 -9 -66 -56 -115 -103 -73 -71 -153 -142 -233 -208 -34 -28
-241 -167 -248 -167 -5 0 -22 -10 -39 -21 -34 -25 -88 -21 -119 7 -16 15 -25
15 -58 6 -21 -7 -52 -9 -69 -6 -17 4 -62 0 -99 -7 -37 -7 -70 -14 -73 -14 -3
0 -21 -6 -40 -12 -44 -15 -82 -20 -197 -29 -91 -7 -92 -6 -98 17 -7 31 -1 90
12 113 7 12 7 31 1 57 -8 31 -13 36 -27 29 -33 -18 -212 -70 -238 -70 -47 1
-61 20 -59 75 1 35 10 63 29 92 15 24 27 47 27 52 0 7 128 103 164 122 6 3 27
14 46 24 19 10 37 22 40 25 20 27 75 40 172 40 213 0 450 67 699 198 95 50
143 64 429 122 58 12 161 40 229 63 123 41 124 42 81 47 l-44 5 37 25 c50 34
47 41 -10 24 -72 -22 -162 -34 -185 -25 -28 10 -24 13 133 64 143 47 269 106
360 168 80 54 168 137 175 165 7 26 12 28 34 14 21 -13 -1 -49 -85 -139 -62
-67 -65 -71 -22 -37 49 40 134 141 157 186 6 14 28 41 48 60 49 48 58 31 38
-68z"/>
<path d="M10512 10794 c-53 -26 -85 -51 -124 -97 -31 -35 -45 -58 -34 -54 17
7 17 6 5 -10 -8 -10 -20 -24 -28 -33 -8 -9 -10 -15 -3 -18 11 -3 -10 -41 -70
-124 -21 -29 -35 -54 -32 -57 6 -6 387 382 404 412 18 30 -38 21 -118 -19z"/>
<path d="M4922 12738 c-24 -24 -11 -74 60 -215 39 -79 75 -146 79 -148 4 -3 0
-19 -8 -36 -33 -67 9 -144 95 -174 92 -31 132 -9 151 81 16 83 14 100 -18 136
-40 47 -53 74 -57 127 -10 105 -59 173 -160 220 -48 23 -123 28 -142 9z"/>
<path d="M3035 12345 c-31 -30 -32 -65 -1 -102 12 -15 35 -47 49 -70 45 -72
112 -91 192 -54 52 24 74 50 82 95 9 58 -14 82 -85 90 -40 4 -74 16 -106 36
-58 37 -98 38 -131 5z"/>
<path d="M11649 11592 c-15 -9 -46 -32 -69 -50 -24 -17 -70 -42 -102 -53 -74
-28 -110 -67 -106 -118 l3 -36 117 0 c113 0 117 1 159 30 113 79 143 245 45
245 -12 0 -33 -8 -47 -18z"/>
<path d="M9220 11328 c-62 -42 -89 -135 -44 -152 8 -3 35 3 59 14 24 11 61 20
83 20 46 0 72 23 72 66 0 25 -7 32 -47 52 -60 28 -82 28 -123 0z"/>
<path d="M6501 11321 c-43 -11 -79 -47 -87 -89 -6 -31 -2 -37 54 -90 33 -32
72 -80 86 -109 14 -28 36 -59 48 -67 34 -24 90 -20 116 7 21 22 21 29 16 138
-7 126 -20 161 -73 192 -36 21 -112 30 -160 18z"/>
<path d="M3851 11191 c-10 -10 -21 -39 -25 -65 -4 -26 -14 -62 -22 -81 -43
-103 18 -208 137 -234 84 -19 149 17 149 82 0 15 -18 58 -40 94 -22 37 -40 78
-40 92 0 54 -20 101 -50 116 -39 20 -86 19 -109 -4z"/>
<path d="M9175 10955 c-14 -13 -25 -29 -25 -35 0 -6 23 -35 50 -63 28 -28 50
-55 50 -59 0 -4 21 -20 48 -35 40 -24 58 -28 117 -27 75 0 146 27 159 59 22
59 -7 92 -95 106 -35 5 -96 25 -136 44 -87 42 -134 45 -168 10z"/>
<path d="M6951 10635 c-41 -37 -56 -73 -45 -107 5 -18 11 -19 48 -13 22 4 68
10 100 14 48 5 63 11 79 32 25 35 16 59 -32 87 -59 33 -103 29 -150 -13z"/>
<path d="M11026 10021 c-39 -26 -66 -70 -66 -108 0 -38 23 -49 66 -32 16 6 53
13 83 14 43 2 59 7 73 25 23 28 23 69 1 77 -10 4 -29 15 -42 25 -31 23 -78 23
-115 -1z"/>
<path d="M2509 9107 c-43 -29 -75 -77 -94 -140 -31 -105 -12 -182 77 -318 96
-145 179 -205 319 -230 62 -11 70 -10 112 10 34 17 57 39 93 92 43 62 49 77
52 134 6 99 -23 180 -105 290 -77 103 -134 143 -238 169 -95 24 -174 21 -216
-7z m218 -545 c54 -38 112 -72 128 -78 17 -5 30 -16 30 -24 0 -20 -98 -14
-134 8 -65 40 -124 89 -137 114 -36 69 -8 64 113 -20z"/>
<path d="M4310 6182 c-27 -4 -40 -18 -40 -42 0 -8 45 -46 99 -85 92 -65 110
-85 77 -85 -11 0 -10 -15 4 -72 10 -40 21 -80 24 -89 16 -39 482 -281 739
-384 105 -41 123 -46 156 -38 20 6 46 6 56 2 37 -14 145 12 145 35 0 7 -6 18
-12 25 -11 11 -10 13 5 8 96 -34 326 -92 334 -84 5 6 -82 97 -93 97 -3 0 -19
9 -34 20 -15 11 -95 43 -176 71 -189 65 -228 83 -339 153 -49 31 -100 59 -112
62 -12 3 -29 17 -38 30 -10 16 -89 61 -218 126 -111 56 -246 124 -300 152 -54
28 -115 59 -135 69 -20 11 -50 20 -67 21 -18 2 -36 5 -41 8 -5 2 -20 2 -34 0z"/>
<path d="M1476 5953 c-14 -91 -18 -403 -7 -508 75 -704 479 -1492 1099 -2145
458 -483 821 -788 1333 -1124 l137 -89 -59 -39 c-59 -40 -109 -103 -130 -165
-6 -19 -9 -65 -7 -103 3 -62 7 -72 47 -124 72 -93 89 -100 244 -93 206 8 262
34 342 160 l46 74 162 -82 c1154 -579 2431 -870 3532 -805 909 54 1624 322
2089 782 58 58 116 106 141 117 49 22 65 45 65 93 0 19 7 45 16 58 l16 25 -20
-22 -20 -23 -22 73 c-29 97 -82 149 -198 195 -200 79 -346 67 -466 -39 -48
-42 -106 -145 -106 -187 0 -56 25 -108 80 -164 66 -67 97 -78 232 -78 86 0
291 27 343 46 29 10 -74 -95 -180 -184 -435 -365 -1065 -584 -1855 -643 -198
-15 -731 -6 -935 16 -918 97 -1817 365 -2696 806 -134 66 -160 83 -153 97 4 9
9 46 11 82 4 57 1 72 -24 120 -18 34 -45 66 -72 85 -64 45 -127 42 -254 -14
l-99 -43 -235 157 c-670 446 -1180 910 -1608 1460 -556 715 -847 1504 -786
2133 12 118 10 176 -3 95z m8823 -3771 c3 -4 13 -8 21 -10 8 -2 19 -11 24 -19
5 -9 24 -33 42 -53 35 -39 46 -77 19 -66 -8 3 -15 2 -15 -3 0 -18 -119 -12
-172 9 -105 42 -102 40 -108 104 l-5 58 94 -6 c52 -3 97 -9 100 -14z"/>
<path d="M7862 5766 l-31 -23 72 -41 c112 -64 292 -147 402 -185 226 -78 413
-107 685 -106 280 1 353 13 135 21 -464 18 -870 125 -1142 300 -37 24 -73 47
-79 51 -6 3 -25 -4 -42 -17z"/>
<path d="M2298 5606 c-54 -19 -135 -90 -183 -162 -34 -50 -33 -105 6 -205 44
-114 118 -189 249 -252 185 -90 278 -111 375 -83 109 32 193 105 215 187 14
52 -1 113 -55 225 -56 116 -111 167 -249 234 -139 67 -269 88 -358 56z m215
-116 c35 -16 72 -39 82 -50 10 -11 26 -20 36 -20 9 0 28 -13 42 -29 13 -16 38
-36 55 -45 36 -18 78 -69 63 -74 -6 -2 -28 10 -49 26 -20 16 -68 46 -107 68
-38 21 -84 47 -101 59 -17 11 -52 32 -78 48 -44 25 -53 47 -20 47 7 0 43 -13
77 -30z m-338 -169 c3 -11 56 -69 117 -129 118 -118 127 -139 54 -129 -36 5
-52 17 -123 93 -46 47 -83 95 -83 105 0 10 -5 29 -11 43 -16 35 -5 60 20 46
11 -5 22 -19 26 -29z"/>
<path d="M5009 5285 c-149 -20 -254 -52 -379 -113 -96 -47 -127 -68 -192 -132
-78 -77 -130 -163 -144 -238 -5 -25 -19 -43 -55 -70 -30 -22 -59 -56 -75 -87
l-27 -50 -101 -28 c-55 -15 -131 -34 -168 -42 -97 -21 -131 -38 -189 -92 -58
-54 -97 -123 -105 -187 l-6 -43 -142 -10 c-169 -12 -210 -27 -328 -122 -129
-104 -169 -177 -150 -276 11 -54 5 -64 -33 -65 -37 0 -124 -48 -175 -96 -62
-58 -85 -121 -70 -191 22 -96 76 -163 156 -193 69 -25 208 -50 285 -50 86 0
104 -10 118 -65 13 -51 56 -140 93 -194 24 -33 117 -104 210 -158 26 -16 49
-38 52 -49 10 -36 83 -138 113 -156 15 -9 46 -20 68 -24 25 -4 57 -22 85 -47
61 -53 178 -121 273 -158 43 -16 156 -67 250 -113 169 -82 235 -108 222 -86
-4 6 8 10 31 10 36 0 37 1 18 15 -17 14 -13 15 46 9 86 -9 91 -13 74 -72 -17
-55 -12 -87 26 -162 46 -92 98 -125 242 -154 108 -22 320 -31 388 -16 63 13
76 14 145 5 55 -8 140 10 222 47 61 27 79 25 151 -13 49 -25 61 -37 71 -67 6
-20 28 -59 49 -87 34 -46 43 -52 107 -68 39 -10 117 -21 175 -24 126 -7 163 6
247 81 46 41 57 47 90 44 36 -3 39 -6 58 -59 31 -87 79 -138 197 -205 l103
-59 95 0 c73 1 111 6 163 24 75 26 193 100 246 155 39 41 86 48 137 21 16 -8
41 -15 57 -15 15 0 27 -4 27 -10 0 -5 9 -10 21 -10 11 0 33 -6 47 -14 26 -13
54 -25 105 -45 12 -5 35 -14 52 -21 48 -19 206 -50 259 -50 43 0 55 -5 103
-44 89 -74 141 -88 333 -93 134 -4 177 -2 229 12 85 22 153 57 206 106 l44 41
78 -17 c43 -9 116 -19 163 -22 80 -5 87 -4 113 18 47 42 63 207 28 284 -25 55
-117 152 -184 195 -31 19 -56 37 -56 40 0 3 27 21 60 40 78 44 180 137 213
194 38 65 62 185 47 235 -21 71 -162 171 -241 171 -31 0 -136 -25 -180 -43
-11 -5 -24 13 -51 71 -20 42 -40 88 -44 102 -19 62 -88 116 -173 135 -49 10
-115 -2 -156 -30 l-35 -24 -31 55 c-32 57 -110 139 -141 149 -11 4 -24 27 -34
61 -12 43 -24 60 -56 83 -22 16 -39 33 -37 38 2 4 -24 15 -57 23 -33 8 -62 17
-65 21 -13 15 -180 26 -226 15 -19 -5 -23 0 -34 42 -6 26 -14 56 -16 67 -4 25
-83 95 -107 95 -32 0 -56 19 -77 60 -28 55 -25 59 18 19 77 -71 92 -81 183
-121 194 -84 283 -104 374 -86 90 19 188 84 232 157 52 83 17 239 -89 392 -48
69 -98 106 -230 169 -111 52 -184 70 -287 70 -89 -1 -136 -24 -229 -112 -41
-40 -72 -68 -68 -61 4 7 -10 43 -30 80 -21 37 -48 87 -60 111 -36 65 -66 102
-84 102 -9 0 -33 23 -54 50 -21 28 -46 50 -56 50 -10 0 -35 20 -55 45 -20 24
-40 43 -44 42 -4 -1 -31 19 -60 46 -29 26 -56 47 -60 47 -4 0 -25 17 -46 37
-22 21 -42 38 -45 38 -3 0 -43 30 -90 66 -157 123 -361 248 -575 354 -258 127
-359 164 -562 209 -87 19 -198 46 -248 59 -171 47 -476 60 -686 32z m481 -100
c96 -9 191 -18 210 -21 257 -41 514 -118 759 -229 115 -51 436 -224 491 -264
110 -79 186 -138 197 -151 10 -13 -1 -17 -70 -32 -45 -10 -91 -15 -102 -11
-11 4 -23 6 -28 5 -4 -1 -25 7 -47 18 -22 11 -52 22 -67 24 -16 2 -48 11 -73
20 -25 10 -63 17 -85 17 -486 -7 -516 -10 -746 -83 l-96 -30 -68 41 c-167 100
-336 127 -458 73 l-48 -21 -46 29 c-40 26 -57 30 -112 30 -42 0 -91 -9 -133
-24 l-68 -23 0 22 c0 35 -75 141 -127 180 -69 51 -135 68 -249 63 -52 -1 -94
-1 -94 1 0 18 74 111 128 163 149 140 372 212 667 217 50 0 169 -6 265 -14z
m-972 -462 c0 -26 -5 -56 -12 -65 -19 -25 -134 -61 -193 -59 -74 2 -83 3 -83
13 0 4 -5 7 -11 6 -26 -6 -18 24 15 56 20 18 36 37 36 40 0 11 27 36 32 30 3
-2 16 2 30 9 14 7 61 14 105 15 l80 3 1 -48z m1171 -236 c14 -7 34 -27 44 -45
19 -31 19 -34 2 -52 -22 -25 -27 -25 -108 1 -80 25 -91 37 -82 85 l6 37 56 -7
c31 -4 68 -12 82 -19z m-2051 -435 c-2 -11 -15 -18 -38 -20 -19 -1 -53 -6 -75
-11 -22 -6 -83 -13 -135 -17 -52 -3 -114 -12 -136 -19 -54 -16 -79 -3 -36 19
17 9 42 16 55 16 14 0 44 7 68 16 24 9 60 18 79 20 19 2 52 7 73 11 21 5 63 6
93 5 45 -3 55 -7 52 -20z m3930 -56 c24 -19 56 -52 92 -94 19 -23 43 -41 53
-42 9 0 17 -3 18 -7 0 -5 1 -25 2 -46 2 -34 -1 -39 -20 -36 -3 0 -10 -6 -15
-15 -5 -9 -13 -16 -19 -16 -15 0 -79 73 -79 90 0 16 -49 159 -69 200 l-12 25
18 -24 c10 -14 24 -30 31 -35z m627 -45 c33 -16 75 -41 94 -55 19 -14 40 -26
46 -26 6 0 28 -18 49 -39 22 -22 51 -45 65 -51 29 -12 64 -55 59 -71 -2 -6
-25 6 -51 26 -26 20 -71 49 -100 64 -29 15 -80 45 -114 67 -33 21 -82 51 -108
67 -44 26 -52 47 -17 47 9 0 44 -13 77 -29z m-369 -183 c9 -17 68 -81 131
-143 93 -90 114 -116 109 -132 -6 -18 -10 -19 -52 -8 -38 9 -61 27 -129 97
-66 68 -85 94 -91 124 -3 22 -10 46 -14 54 -10 17 7 53 21 45 5 -4 16 -20 25
-37z m-1058 -135 c-1 -5 2 -25 6 -46 11 -49 35 -64 56 -32 10 15 20 21 28 16
10 -6 8 -14 -8 -34 -27 -34 -19 -64 30 -112 43 -42 44 -60 3 -44 -78 29 -143
120 -143 200 0 25 3 49 7 52 9 9 23 9 21 0z m-3598 -93 c25 -10 71 -21 103
-25 85 -11 112 -43 55 -66 -56 -21 -85 -16 -145 24 -27 17 -58 37 -68 43 -11
6 -22 21 -23 34 -3 19 -1 21 15 15 10 -4 38 -16 63 -25z m5198 -567 c26 -4 32
-9 27 -22 -4 -9 -9 -29 -12 -46 -8 -38 -23 -53 -59 -59 -16 -3 -41 -8 -56 -12
-23 -5 -37 3 -87 46 -58 52 -58 53 -39 72 10 10 29 23 41 28 21 9 113 6 185
-7z m-385 -97 c15 -2 42 -13 59 -26 17 -12 28 -18 24 -11 -4 6 -5 11 -2 11 2
0 14 -15 25 -33 11 -18 29 -44 41 -56 26 -30 26 -57 0 -64 -53 -14 -128 -1
-199 33 -75 37 -76 38 -85 119 l-4 44 56 -7 c31 -4 70 -9 85 -10z m-1383 -46
c4 -6 11 -12 16 -12 20 0 34 -16 48 -56 8 -23 13 -48 10 -56 -9 -24 -83 -9
-152 31 -81 47 -93 64 -67 94 18 19 27 21 79 16 32 -3 62 -11 66 -17z m505
-49 c16 -7 55 -30 87 -52 32 -21 64 -39 72 -39 7 0 21 -11 30 -25 9 -14 39
-40 67 -56 43 -27 69 -54 69 -73 0 -13 -23 -4 -46 18 -14 13 -65 45 -112 71
-48 27 -105 60 -127 75 -22 15 -61 39 -87 54 -31 17 -45 31 -42 40 6 15 24 12
89 -13z m1689 -88 c-10 -75 -14 -83 -41 -89 -15 -4 -38 -13 -52 -20 -38 -20
-48 -17 -60 17 -6 17 -24 48 -42 70 -17 21 -29 39 -27 40 1 0 11 2 21 4 11 2
21 6 25 9 3 3 45 6 93 6 l88 0 -5 -37z m-2050 -100 c13 -21 76 -89 140 -152
98 -97 115 -117 103 -128 -10 -10 -24 -12 -54 -5 -59 13 -203 164 -220 230
-25 95 -11 120 31 55z m1799 -256 c-11 -14 -11 -20 7 -75 18 -58 33 -69 57
-40 10 13 24 24 31 26 19 3 14 -22 -9 -47 -18 -19 -19 -26 -9 -51 7 -16 27
-44 46 -62 43 -42 45 -60 4 -48 -49 14 -96 57 -130 122 -30 56 -32 66 -27 126
7 65 28 114 35 78 2 -9 0 -22 -5 -29z m1054 -22 c-4 -44 -25 -95 -47 -115 -3
-3 -20 -24 -38 -47 -32 -41 -85 -77 -96 -65 -13 13 -2 34 67 134 39 57 73 111
75 119 6 22 23 39 34 33 5 -4 8 -30 5 -59z m-3824 -6 c43 -12 149 -114 145
-138 -7 -33 -122 -29 -191 6 -96 49 -116 79 -77 121 23 25 63 28 123 11z
m-409 -143 c45 -26 112 -125 103 -150 -7 -17 -92 -15 -138 2 -40 16 -139 93
-139 109 0 18 19 55 34 66 19 13 97 -2 140 -27z m2716 -132 c30 -11 57 -22 60
-25 3 -3 12 -8 21 -11 8 -3 30 -36 49 -74 30 -62 32 -68 16 -80 -36 -26 -136
3 -220 64 -51 38 -59 54 -47 99 6 20 8 40 4 46 -8 13 51 3 117 -19z m-1410
-101 c-7 -70 -17 -89 -70 -137 -48 -43 -73 -54 -137 -60 l-46 -4 61 38 c74 47
87 68 67 106 -8 15 -12 31 -9 36 8 13 36 -13 30 -28 -2 -6 4 -14 15 -17 24 -6
68 48 74 90 5 35 4 33 13 33 4 0 5 -26 2 -57z m2698 -100 c23 -14 42 -22 42
-17 0 4 11 -5 25 -20 13 -14 28 -26 32 -25 10 1 54 -142 49 -157 -6 -15 -83
-1 -128 22 -43 23 -138 113 -138 133 0 8 7 35 16 58 19 49 26 49 102 6z m-403
-23 c0 -10 -12 -16 -35 -17 -19 -2 -66 -7 -105 -13 -38 -5 -118 -14 -178 -20
-59 -5 -115 -14 -125 -19 -10 -5 -24 -6 -31 -2 -20 13 11 31 70 41 30 5 69 16
87 25 18 9 43 15 55 12 12 -3 31 -1 42 3 11 5 65 8 120 7 81 -2 100 -5 100
-17z m222 -286 c2 -7 -8 -25 -22 -40 -15 -16 -34 -38 -43 -50 -18 -22 -78 -49
-182 -83 -81 -26 -143 -20 -138 13 2 14 17 26 53 39 137 49 238 92 267 114 33
24 58 27 65 7z"/>
<path d="M1366 3301 c-109 -44 -154 -95 -163 -185 -9 -83 19 -161 75 -216 108
-104 475 -239 564 -208 34 12 51 41 72 125 32 122 15 192 -70 298 -113 142
-208 198 -344 202 -66 2 -96 -1 -134 -16z m377 -146 c98 -66 116 -89 132 -170
19 -90 4 -100 -83 -60 -53 24 -152 133 -152 166 0 10 9 33 19 51 11 17 18 35
15 40 -12 18 21 6 69 -27z"/>
<path d="M10430 1279 c-82 -25 -147 -108 -157 -201 -11 -105 61 -291 144 -375
51 -51 126 -77 278 -94 132 -15 163 -7 232 59 70 67 87 102 87 187 1 57 -4 80
-27 127 -42 87 -95 134 -206 185 -53 24 -127 60 -166 78 -79 39 -134 49 -185
34z m-52 -186 c-3 -15 23 -92 33 -99 6 -3 21 3 33 15 40 37 50 19 16 -29 l-20
-28 26 -38 c14 -22 39 -51 56 -67 17 -15 29 -29 27 -32 -9 -9 -105 43 -130 71
-43 47 -69 104 -69 155 0 25 3 49 7 52 9 9 23 9 21 0z"/>
</g>
</svg>
